<mxfile host="app.diagrams.net" modified="2022-08-04T17:27:05.215Z" agent="5.0 (Windows NT 10.0; Win64; x64) AppleWebKit/537.36 (KHTML, like Gecko) Chrome/103.0.0.0 Safari/537.36" etag="m0Bes73q6woOFA2OfcMW" version="20.2.3" type="github">
  <diagram id="beQlqaAFYyjwE04wnYm-" name="Page-1">
    <mxGraphModel dx="1548" dy="786" grid="1" gridSize="10" guides="1" tooltips="1" connect="1" arrows="1" fold="1" page="0" pageScale="1" pageWidth="827" pageHeight="1169" math="0" shadow="0">
      <root>
        <mxCell id="0" />
        <mxCell id="1" parent="0" />
        <mxCell id="LIvWZLMN3E5GT9Do7VMa-181" value="" style="rounded=0;whiteSpace=wrap;html=1;fontSize=10;strokeColor=none;" vertex="1" parent="1">
          <mxGeometry x="30" y="50" width="620" height="1580" as="geometry" />
        </mxCell>
        <mxCell id="LIvWZLMN3E5GT9Do7VMa-116" style="edgeStyle=orthogonalEdgeStyle;rounded=0;orthogonalLoop=1;jettySize=auto;html=1;exitX=1;exitY=0.5;exitDx=0;exitDy=0;entryX=0;entryY=0.5;entryDx=0;entryDy=0;fillColor=#ffe6cc;strokeColor=#d79b00;" edge="1" parent="1" source="LIvWZLMN3E5GT9Do7VMa-1" target="LIvWZLMN3E5GT9Do7VMa-4">
          <mxGeometry relative="1" as="geometry" />
        </mxCell>
        <mxCell id="LIvWZLMN3E5GT9Do7VMa-97" style="edgeStyle=orthogonalEdgeStyle;rounded=0;orthogonalLoop=1;jettySize=auto;html=1;exitX=1;exitY=0.5;exitDx=0;exitDy=0;entryX=0;entryY=0.5;entryDx=0;entryDy=0;fillColor=#d5e8d4;strokeColor=#82b366;" edge="1" parent="1" source="LIvWZLMN3E5GT9Do7VMa-1" target="LIvWZLMN3E5GT9Do7VMa-3">
          <mxGeometry relative="1" as="geometry" />
        </mxCell>
        <mxCell id="LIvWZLMN3E5GT9Do7VMa-1" value="Scrum Framework" style="rounded=0;whiteSpace=wrap;html=1;fillColor=#f5f5f5;fontColor=#333333;strokeColor=#666666;" vertex="1" parent="1">
          <mxGeometry x="40" y="60" width="80" height="40" as="geometry" />
        </mxCell>
        <mxCell id="LIvWZLMN3E5GT9Do7VMa-127" style="edgeStyle=orthogonalEdgeStyle;rounded=0;orthogonalLoop=1;jettySize=auto;html=1;exitX=1;exitY=0.5;exitDx=0;exitDy=0;entryX=0;entryY=0.5;entryDx=0;entryDy=0;fontSize=10;fillColor=#dae8fc;strokeColor=#6c8ebf;" edge="1" parent="1" source="LIvWZLMN3E5GT9Do7VMa-2" target="LIvWZLMN3E5GT9Do7VMa-10">
          <mxGeometry relative="1" as="geometry" />
        </mxCell>
        <mxCell id="LIvWZLMN3E5GT9Do7VMa-128" style="edgeStyle=orthogonalEdgeStyle;rounded=0;orthogonalLoop=1;jettySize=auto;html=1;exitX=1;exitY=0.5;exitDx=0;exitDy=0;entryX=0;entryY=0.5;entryDx=0;entryDy=0;fontSize=10;fillColor=#dae8fc;strokeColor=#6c8ebf;" edge="1" parent="1" source="LIvWZLMN3E5GT9Do7VMa-2" target="LIvWZLMN3E5GT9Do7VMa-11">
          <mxGeometry relative="1" as="geometry" />
        </mxCell>
        <mxCell id="LIvWZLMN3E5GT9Do7VMa-129" style="edgeStyle=orthogonalEdgeStyle;rounded=0;orthogonalLoop=1;jettySize=auto;html=1;exitX=1;exitY=0.5;exitDx=0;exitDy=0;entryX=0;entryY=0.5;entryDx=0;entryDy=0;fontSize=10;fillColor=#dae8fc;strokeColor=#6c8ebf;" edge="1" parent="1" source="LIvWZLMN3E5GT9Do7VMa-2" target="LIvWZLMN3E5GT9Do7VMa-12">
          <mxGeometry relative="1" as="geometry" />
        </mxCell>
        <mxCell id="LIvWZLMN3E5GT9Do7VMa-130" style="edgeStyle=orthogonalEdgeStyle;rounded=0;orthogonalLoop=1;jettySize=auto;html=1;exitX=1;exitY=0.5;exitDx=0;exitDy=0;entryX=0;entryY=0.5;entryDx=0;entryDy=0;fontSize=10;fillColor=#dae8fc;strokeColor=#6c8ebf;" edge="1" parent="1" source="LIvWZLMN3E5GT9Do7VMa-2" target="LIvWZLMN3E5GT9Do7VMa-13">
          <mxGeometry relative="1" as="geometry" />
        </mxCell>
        <mxCell id="LIvWZLMN3E5GT9Do7VMa-131" style="edgeStyle=orthogonalEdgeStyle;rounded=0;orthogonalLoop=1;jettySize=auto;html=1;exitX=1;exitY=0.5;exitDx=0;exitDy=0;entryX=0;entryY=0.5;entryDx=0;entryDy=0;fontSize=10;fillColor=#dae8fc;strokeColor=#6c8ebf;" edge="1" parent="1" source="LIvWZLMN3E5GT9Do7VMa-2" target="LIvWZLMN3E5GT9Do7VMa-14">
          <mxGeometry relative="1" as="geometry" />
        </mxCell>
        <mxCell id="LIvWZLMN3E5GT9Do7VMa-132" style="edgeStyle=orthogonalEdgeStyle;rounded=0;orthogonalLoop=1;jettySize=auto;html=1;exitX=1;exitY=0.5;exitDx=0;exitDy=0;entryX=0;entryY=0.5;entryDx=0;entryDy=0;fontSize=10;fillColor=#dae8fc;strokeColor=#6c8ebf;" edge="1" parent="1" source="LIvWZLMN3E5GT9Do7VMa-2" target="LIvWZLMN3E5GT9Do7VMa-15">
          <mxGeometry relative="1" as="geometry" />
        </mxCell>
        <mxCell id="LIvWZLMN3E5GT9Do7VMa-2" value="Principles" style="rounded=0;whiteSpace=wrap;html=1;fillColor=#dae8fc;strokeColor=#6c8ebf;" vertex="1" parent="1">
          <mxGeometry x="160" y="60" width="80" height="40" as="geometry" />
        </mxCell>
        <mxCell id="LIvWZLMN3E5GT9Do7VMa-98" style="edgeStyle=orthogonalEdgeStyle;rounded=0;orthogonalLoop=1;jettySize=auto;html=1;exitX=1;exitY=0.5;exitDx=0;exitDy=0;entryX=0;entryY=0.5;entryDx=0;entryDy=0;fillColor=#d5e8d4;strokeColor=#82b366;" edge="1" parent="1" source="LIvWZLMN3E5GT9Do7VMa-3" target="LIvWZLMN3E5GT9Do7VMa-51">
          <mxGeometry relative="1" as="geometry" />
        </mxCell>
        <mxCell id="LIvWZLMN3E5GT9Do7VMa-99" style="edgeStyle=orthogonalEdgeStyle;rounded=0;orthogonalLoop=1;jettySize=auto;html=1;exitX=1;exitY=0.5;exitDx=0;exitDy=0;entryX=0;entryY=0.5;entryDx=0;entryDy=0;fillColor=#d5e8d4;strokeColor=#82b366;" edge="1" parent="1" source="LIvWZLMN3E5GT9Do7VMa-3" target="LIvWZLMN3E5GT9Do7VMa-69">
          <mxGeometry relative="1" as="geometry" />
        </mxCell>
        <mxCell id="LIvWZLMN3E5GT9Do7VMa-100" style="edgeStyle=orthogonalEdgeStyle;rounded=0;orthogonalLoop=1;jettySize=auto;html=1;exitX=1;exitY=0.5;exitDx=0;exitDy=0;entryX=0;entryY=0.5;entryDx=0;entryDy=0;fillColor=#d5e8d4;strokeColor=#82b366;" edge="1" parent="1" source="LIvWZLMN3E5GT9Do7VMa-3" target="LIvWZLMN3E5GT9Do7VMa-71">
          <mxGeometry relative="1" as="geometry" />
        </mxCell>
        <mxCell id="LIvWZLMN3E5GT9Do7VMa-101" style="edgeStyle=orthogonalEdgeStyle;rounded=0;orthogonalLoop=1;jettySize=auto;html=1;exitX=1;exitY=0.5;exitDx=0;exitDy=0;entryX=0;entryY=0.5;entryDx=0;entryDy=0;fillColor=#d5e8d4;strokeColor=#82b366;" edge="1" parent="1" source="LIvWZLMN3E5GT9Do7VMa-3" target="LIvWZLMN3E5GT9Do7VMa-70">
          <mxGeometry relative="1" as="geometry" />
        </mxCell>
        <mxCell id="LIvWZLMN3E5GT9Do7VMa-102" style="edgeStyle=orthogonalEdgeStyle;rounded=0;orthogonalLoop=1;jettySize=auto;html=1;exitX=1;exitY=0.5;exitDx=0;exitDy=0;entryX=0;entryY=0.5;entryDx=0;entryDy=0;fillColor=#d5e8d4;strokeColor=#82b366;" edge="1" parent="1" source="LIvWZLMN3E5GT9Do7VMa-3" target="LIvWZLMN3E5GT9Do7VMa-72">
          <mxGeometry relative="1" as="geometry" />
        </mxCell>
        <mxCell id="LIvWZLMN3E5GT9Do7VMa-3" value="Aspects" style="rounded=0;whiteSpace=wrap;html=1;fillColor=#d5e8d4;strokeColor=#82b366;" vertex="1" parent="1">
          <mxGeometry x="160" y="370" width="80" height="40" as="geometry" />
        </mxCell>
        <mxCell id="LIvWZLMN3E5GT9Do7VMa-134" style="edgeStyle=orthogonalEdgeStyle;rounded=0;orthogonalLoop=1;jettySize=auto;html=1;exitX=1;exitY=0.5;exitDx=0;exitDy=0;entryX=0;entryY=0.5;entryDx=0;entryDy=0;fontSize=10;fillColor=#ffe6cc;strokeColor=#d79b00;" edge="1" parent="1" source="LIvWZLMN3E5GT9Do7VMa-4" target="LIvWZLMN3E5GT9Do7VMa-117">
          <mxGeometry relative="1" as="geometry" />
        </mxCell>
        <mxCell id="LIvWZLMN3E5GT9Do7VMa-135" style="edgeStyle=orthogonalEdgeStyle;rounded=0;orthogonalLoop=1;jettySize=auto;html=1;exitX=1;exitY=0.5;exitDx=0;exitDy=0;entryX=0;entryY=0.5;entryDx=0;entryDy=0;fontSize=10;fillColor=#ffe6cc;strokeColor=#d79b00;" edge="1" parent="1" source="LIvWZLMN3E5GT9Do7VMa-4" target="LIvWZLMN3E5GT9Do7VMa-118">
          <mxGeometry relative="1" as="geometry" />
        </mxCell>
        <mxCell id="LIvWZLMN3E5GT9Do7VMa-136" style="edgeStyle=orthogonalEdgeStyle;rounded=0;orthogonalLoop=1;jettySize=auto;html=1;exitX=1;exitY=0.5;exitDx=0;exitDy=0;entryX=0;entryY=0.5;entryDx=0;entryDy=0;fontSize=10;fillColor=#ffe6cc;strokeColor=#d79b00;" edge="1" parent="1" source="LIvWZLMN3E5GT9Do7VMa-4" target="LIvWZLMN3E5GT9Do7VMa-119">
          <mxGeometry relative="1" as="geometry" />
        </mxCell>
        <mxCell id="LIvWZLMN3E5GT9Do7VMa-137" style="edgeStyle=orthogonalEdgeStyle;rounded=0;orthogonalLoop=1;jettySize=auto;html=1;exitX=1;exitY=0.5;exitDx=0;exitDy=0;entryX=0;entryY=0.5;entryDx=0;entryDy=0;fontSize=10;fillColor=#ffe6cc;strokeColor=#d79b00;" edge="1" parent="1" source="LIvWZLMN3E5GT9Do7VMa-4" target="LIvWZLMN3E5GT9Do7VMa-120">
          <mxGeometry relative="1" as="geometry" />
        </mxCell>
        <mxCell id="LIvWZLMN3E5GT9Do7VMa-138" style="edgeStyle=orthogonalEdgeStyle;rounded=0;orthogonalLoop=1;jettySize=auto;html=1;exitX=1;exitY=0.5;exitDx=0;exitDy=0;entryX=0;entryY=0.5;entryDx=0;entryDy=0;fontSize=10;fillColor=#ffe6cc;strokeColor=#d79b00;" edge="1" parent="1" source="LIvWZLMN3E5GT9Do7VMa-4" target="LIvWZLMN3E5GT9Do7VMa-121">
          <mxGeometry relative="1" as="geometry" />
        </mxCell>
        <mxCell id="LIvWZLMN3E5GT9Do7VMa-4" value="Processes" style="rounded=0;whiteSpace=wrap;html=1;fillColor=#ffe6cc;strokeColor=#d79b00;" vertex="1" parent="1">
          <mxGeometry x="160" y="680" width="80" height="40" as="geometry" />
        </mxCell>
        <mxCell id="LIvWZLMN3E5GT9Do7VMa-10" value="Empirical Process Control" style="rounded=0;whiteSpace=wrap;html=1;fillColor=#dae8fc;strokeColor=#6c8ebf;" vertex="1" parent="1">
          <mxGeometry x="280" y="60" width="120" height="40" as="geometry" />
        </mxCell>
        <mxCell id="LIvWZLMN3E5GT9Do7VMa-11" value="Self-organization" style="rounded=0;whiteSpace=wrap;html=1;fillColor=#dae8fc;strokeColor=#6c8ebf;" vertex="1" parent="1">
          <mxGeometry x="280" y="110" width="120" height="40" as="geometry" />
        </mxCell>
        <mxCell id="LIvWZLMN3E5GT9Do7VMa-13" value="Value-based Prioritization" style="rounded=0;whiteSpace=wrap;html=1;fillColor=#dae8fc;strokeColor=#6c8ebf;" vertex="1" parent="1">
          <mxGeometry x="280" y="210" width="120" height="40" as="geometry" />
        </mxCell>
        <mxCell id="LIvWZLMN3E5GT9Do7VMa-14" value="Time-boxing" style="rounded=0;whiteSpace=wrap;html=1;fillColor=#dae8fc;strokeColor=#6c8ebf;" vertex="1" parent="1">
          <mxGeometry x="280" y="260" width="120" height="40" as="geometry" />
        </mxCell>
        <mxCell id="LIvWZLMN3E5GT9Do7VMa-15" value="Iterative &lt;br&gt;Development" style="rounded=0;whiteSpace=wrap;html=1;fillColor=#dae8fc;strokeColor=#6c8ebf;" vertex="1" parent="1">
          <mxGeometry x="280" y="310" width="120" height="40" as="geometry" />
        </mxCell>
        <mxCell id="LIvWZLMN3E5GT9Do7VMa-88" style="edgeStyle=orthogonalEdgeStyle;rounded=0;orthogonalLoop=1;jettySize=auto;html=1;exitX=1;exitY=0.5;exitDx=0;exitDy=0;entryX=0;entryY=0.5;entryDx=0;entryDy=0;fillColor=#d5e8d4;strokeColor=#82b366;" edge="1" parent="1" source="LIvWZLMN3E5GT9Do7VMa-51" target="LIvWZLMN3E5GT9Do7VMa-54">
          <mxGeometry relative="1" as="geometry">
            <Array as="points">
              <mxPoint x="380" y="390" />
              <mxPoint x="380" y="540" />
            </Array>
          </mxGeometry>
        </mxCell>
        <mxCell id="LIvWZLMN3E5GT9Do7VMa-89" style="edgeStyle=orthogonalEdgeStyle;rounded=0;orthogonalLoop=1;jettySize=auto;html=1;exitX=1;exitY=0.5;exitDx=0;exitDy=0;entryX=0;entryY=0.5;entryDx=0;entryDy=0;fillColor=#d5e8d4;strokeColor=#82b366;" edge="1" parent="1" source="LIvWZLMN3E5GT9Do7VMa-51" target="LIvWZLMN3E5GT9Do7VMa-52">
          <mxGeometry relative="1" as="geometry" />
        </mxCell>
        <mxCell id="LIvWZLMN3E5GT9Do7VMa-51" value="Organization" style="rounded=0;whiteSpace=wrap;html=1;fillColor=#d5e8d4;strokeColor=#82b366;" vertex="1" parent="1">
          <mxGeometry x="280" y="370" width="80" height="40" as="geometry" />
        </mxCell>
        <mxCell id="LIvWZLMN3E5GT9Do7VMa-93" style="edgeStyle=orthogonalEdgeStyle;rounded=0;orthogonalLoop=1;jettySize=auto;html=1;exitX=1;exitY=0.5;exitDx=0;exitDy=0;entryX=0;entryY=0.5;entryDx=0;entryDy=0;fillColor=#d5e8d4;strokeColor=#82b366;" edge="1" parent="1" source="LIvWZLMN3E5GT9Do7VMa-52" target="LIvWZLMN3E5GT9Do7VMa-56">
          <mxGeometry relative="1" as="geometry" />
        </mxCell>
        <mxCell id="LIvWZLMN3E5GT9Do7VMa-94" style="edgeStyle=orthogonalEdgeStyle;rounded=0;orthogonalLoop=1;jettySize=auto;html=1;exitX=1;exitY=0.5;exitDx=0;exitDy=0;entryX=0;entryY=0.5;entryDx=0;entryDy=0;fillColor=#d5e8d4;strokeColor=#82b366;" edge="1" parent="1" source="LIvWZLMN3E5GT9Do7VMa-52" target="LIvWZLMN3E5GT9Do7VMa-57">
          <mxGeometry relative="1" as="geometry" />
        </mxCell>
        <mxCell id="LIvWZLMN3E5GT9Do7VMa-95" style="edgeStyle=orthogonalEdgeStyle;rounded=0;orthogonalLoop=1;jettySize=auto;html=1;exitX=1;exitY=0.5;exitDx=0;exitDy=0;entryX=0;entryY=0.5;entryDx=0;entryDy=0;fillColor=#d5e8d4;strokeColor=#82b366;" edge="1" parent="1" source="LIvWZLMN3E5GT9Do7VMa-52" target="LIvWZLMN3E5GT9Do7VMa-58">
          <mxGeometry relative="1" as="geometry" />
        </mxCell>
        <mxCell id="LIvWZLMN3E5GT9Do7VMa-52" value="Core Roles" style="rounded=0;whiteSpace=wrap;html=1;fillColor=#d5e8d4;strokeColor=#82b366;" vertex="1" parent="1">
          <mxGeometry x="400" y="370" width="80" height="40" as="geometry" />
        </mxCell>
        <mxCell id="LIvWZLMN3E5GT9Do7VMa-90" style="edgeStyle=orthogonalEdgeStyle;rounded=0;orthogonalLoop=1;jettySize=auto;html=1;exitX=1;exitY=0.5;exitDx=0;exitDy=0;entryX=0;entryY=0.5;entryDx=0;entryDy=0;fillColor=#d5e8d4;strokeColor=#82b366;" edge="1" parent="1" source="LIvWZLMN3E5GT9Do7VMa-54" target="LIvWZLMN3E5GT9Do7VMa-64">
          <mxGeometry relative="1" as="geometry" />
        </mxCell>
        <mxCell id="LIvWZLMN3E5GT9Do7VMa-91" style="edgeStyle=orthogonalEdgeStyle;rounded=0;orthogonalLoop=1;jettySize=auto;html=1;exitX=1;exitY=0.5;exitDx=0;exitDy=0;entryX=0;entryY=0.5;entryDx=0;entryDy=0;fillColor=#d5e8d4;strokeColor=#82b366;" edge="1" parent="1" source="LIvWZLMN3E5GT9Do7VMa-54" target="LIvWZLMN3E5GT9Do7VMa-63">
          <mxGeometry relative="1" as="geometry" />
        </mxCell>
        <mxCell id="LIvWZLMN3E5GT9Do7VMa-92" style="edgeStyle=orthogonalEdgeStyle;rounded=0;orthogonalLoop=1;jettySize=auto;html=1;exitX=1;exitY=0.5;exitDx=0;exitDy=0;entryX=0;entryY=0.5;entryDx=0;entryDy=0;fillColor=#d5e8d4;strokeColor=#82b366;" edge="1" parent="1" source="LIvWZLMN3E5GT9Do7VMa-54" target="LIvWZLMN3E5GT9Do7VMa-62">
          <mxGeometry relative="1" as="geometry" />
        </mxCell>
        <mxCell id="LIvWZLMN3E5GT9Do7VMa-54" value="Non-core Roles" style="rounded=0;whiteSpace=wrap;html=1;fillColor=#d5e8d4;strokeColor=#82b366;" vertex="1" parent="1">
          <mxGeometry x="400" y="520" width="80" height="40" as="geometry" />
        </mxCell>
        <mxCell id="LIvWZLMN3E5GT9Do7VMa-56" value="Product Owner" style="rounded=0;whiteSpace=wrap;html=1;fillColor=#d5e8d4;strokeColor=#82b366;" vertex="1" parent="1">
          <mxGeometry x="520" y="370" width="120" height="40" as="geometry" />
        </mxCell>
        <mxCell id="LIvWZLMN3E5GT9Do7VMa-57" value="Scrum Master" style="rounded=0;whiteSpace=wrap;html=1;fillColor=#d5e8d4;strokeColor=#82b366;" vertex="1" parent="1">
          <mxGeometry x="520" y="420" width="120" height="40" as="geometry" />
        </mxCell>
        <mxCell id="LIvWZLMN3E5GT9Do7VMa-58" value="Scrum Team" style="rounded=0;whiteSpace=wrap;html=1;fillColor=#d5e8d4;strokeColor=#82b366;" vertex="1" parent="1">
          <mxGeometry x="520" y="470" width="120" height="40" as="geometry" />
        </mxCell>
        <mxCell id="LIvWZLMN3E5GT9Do7VMa-62" value="Business Stakeholder(s)" style="rounded=0;whiteSpace=wrap;html=1;fillColor=#d5e8d4;strokeColor=#82b366;" vertex="1" parent="1">
          <mxGeometry x="520" y="520" width="120" height="40" as="geometry" />
        </mxCell>
        <mxCell id="LIvWZLMN3E5GT9Do7VMa-63" value="Scrum Guidance Body" style="rounded=0;whiteSpace=wrap;html=1;fillColor=#d5e8d4;strokeColor=#82b366;" vertex="1" parent="1">
          <mxGeometry x="520" y="570" width="120" height="40" as="geometry" />
        </mxCell>
        <mxCell id="LIvWZLMN3E5GT9Do7VMa-64" value="Vendors" style="rounded=0;whiteSpace=wrap;html=1;fillColor=#d5e8d4;strokeColor=#82b366;" vertex="1" parent="1">
          <mxGeometry x="520" y="620" width="120" height="40" as="geometry" />
        </mxCell>
        <mxCell id="LIvWZLMN3E5GT9Do7VMa-69" value="Business Justification" style="rounded=0;whiteSpace=wrap;html=1;fillColor=#d5e8d4;strokeColor=#82b366;" vertex="1" parent="1">
          <mxGeometry x="280" y="420" width="80" height="40" as="geometry" />
        </mxCell>
        <mxCell id="LIvWZLMN3E5GT9Do7VMa-70" value="Change" style="rounded=0;whiteSpace=wrap;html=1;fillColor=#d5e8d4;strokeColor=#82b366;" vertex="1" parent="1">
          <mxGeometry x="280" y="520" width="80" height="40" as="geometry" />
        </mxCell>
        <mxCell id="LIvWZLMN3E5GT9Do7VMa-71" value="Quality" style="rounded=0;whiteSpace=wrap;html=1;fillColor=#d5e8d4;strokeColor=#82b366;" vertex="1" parent="1">
          <mxGeometry x="280" y="470" width="80" height="40" as="geometry" />
        </mxCell>
        <mxCell id="LIvWZLMN3E5GT9Do7VMa-72" value="Risk" style="rounded=0;whiteSpace=wrap;html=1;fillColor=#d5e8d4;strokeColor=#82b366;" vertex="1" parent="1">
          <mxGeometry x="280" y="570" width="80" height="40" as="geometry" />
        </mxCell>
        <mxCell id="LIvWZLMN3E5GT9Do7VMa-12" value="Collaboration" style="rounded=0;whiteSpace=wrap;html=1;fillColor=#dae8fc;strokeColor=#6c8ebf;" vertex="1" parent="1">
          <mxGeometry x="280" y="160" width="120" height="40" as="geometry" />
        </mxCell>
        <mxCell id="LIvWZLMN3E5GT9Do7VMa-96" style="edgeStyle=orthogonalEdgeStyle;rounded=0;orthogonalLoop=1;jettySize=auto;html=1;exitX=1;exitY=0.5;exitDx=0;exitDy=0;entryX=0;entryY=0.5;entryDx=0;entryDy=0;fillColor=#dae8fc;strokeColor=#6c8ebf;" edge="1" parent="1" source="LIvWZLMN3E5GT9Do7VMa-1" target="LIvWZLMN3E5GT9Do7VMa-2">
          <mxGeometry relative="1" as="geometry">
            <mxPoint x="140" y="80" as="sourcePoint" />
          </mxGeometry>
        </mxCell>
        <mxCell id="LIvWZLMN3E5GT9Do7VMa-145" style="edgeStyle=orthogonalEdgeStyle;rounded=0;orthogonalLoop=1;jettySize=auto;html=1;exitX=1;exitY=0.5;exitDx=0;exitDy=0;entryX=0;entryY=0.5;entryDx=0;entryDy=0;fontSize=10;fillColor=#ffe6cc;strokeColor=#d79b00;" edge="1" parent="1" source="LIvWZLMN3E5GT9Do7VMa-117" target="LIvWZLMN3E5GT9Do7VMa-139">
          <mxGeometry relative="1" as="geometry" />
        </mxCell>
        <mxCell id="LIvWZLMN3E5GT9Do7VMa-146" style="edgeStyle=orthogonalEdgeStyle;rounded=0;orthogonalLoop=1;jettySize=auto;html=1;exitX=1;exitY=0.5;exitDx=0;exitDy=0;entryX=0;entryY=0.5;entryDx=0;entryDy=0;fontSize=10;fillColor=#ffe6cc;strokeColor=#d79b00;" edge="1" parent="1" source="LIvWZLMN3E5GT9Do7VMa-117" target="LIvWZLMN3E5GT9Do7VMa-140">
          <mxGeometry relative="1" as="geometry" />
        </mxCell>
        <mxCell id="LIvWZLMN3E5GT9Do7VMa-147" style="edgeStyle=orthogonalEdgeStyle;rounded=0;orthogonalLoop=1;jettySize=auto;html=1;exitX=1;exitY=0.5;exitDx=0;exitDy=0;entryX=0;entryY=0.5;entryDx=0;entryDy=0;fontSize=10;fillColor=#ffe6cc;strokeColor=#d79b00;" edge="1" parent="1" source="LIvWZLMN3E5GT9Do7VMa-117" target="LIvWZLMN3E5GT9Do7VMa-142">
          <mxGeometry relative="1" as="geometry" />
        </mxCell>
        <mxCell id="LIvWZLMN3E5GT9Do7VMa-148" style="edgeStyle=orthogonalEdgeStyle;rounded=0;orthogonalLoop=1;jettySize=auto;html=1;entryX=0;entryY=0.5;entryDx=0;entryDy=0;fontSize=10;fillColor=#ffe6cc;strokeColor=#d79b00;" edge="1" parent="1" source="LIvWZLMN3E5GT9Do7VMa-117" target="LIvWZLMN3E5GT9Do7VMa-143">
          <mxGeometry relative="1" as="geometry" />
        </mxCell>
        <mxCell id="LIvWZLMN3E5GT9Do7VMa-149" style="edgeStyle=orthogonalEdgeStyle;rounded=0;orthogonalLoop=1;jettySize=auto;html=1;entryX=0;entryY=0.5;entryDx=0;entryDy=0;fontSize=10;fillColor=#ffe6cc;strokeColor=#d79b00;" edge="1" parent="1" source="LIvWZLMN3E5GT9Do7VMa-117" target="LIvWZLMN3E5GT9Do7VMa-144">
          <mxGeometry relative="1" as="geometry" />
        </mxCell>
        <mxCell id="LIvWZLMN3E5GT9Do7VMa-117" value="Initiate" style="rounded=0;whiteSpace=wrap;html=1;fillColor=#ffe6cc;strokeColor=#d79b00;" vertex="1" parent="1">
          <mxGeometry x="280" y="680" width="80" height="40" as="geometry" />
        </mxCell>
        <mxCell id="LIvWZLMN3E5GT9Do7VMa-159" style="edgeStyle=orthogonalEdgeStyle;rounded=0;orthogonalLoop=1;jettySize=auto;html=1;exitX=1;exitY=0.5;exitDx=0;exitDy=0;entryX=0;entryY=0.5;entryDx=0;entryDy=0;fontSize=10;fillColor=#ffe6cc;strokeColor=#d79b00;" edge="1" parent="1" source="LIvWZLMN3E5GT9Do7VMa-118" target="LIvWZLMN3E5GT9Do7VMa-150">
          <mxGeometry relative="1" as="geometry" />
        </mxCell>
        <mxCell id="LIvWZLMN3E5GT9Do7VMa-160" style="edgeStyle=orthogonalEdgeStyle;rounded=0;orthogonalLoop=1;jettySize=auto;html=1;entryX=0;entryY=0.5;entryDx=0;entryDy=0;fontSize=10;fillColor=#ffe6cc;strokeColor=#d79b00;" edge="1" parent="1" source="LIvWZLMN3E5GT9Do7VMa-118" target="LIvWZLMN3E5GT9Do7VMa-152">
          <mxGeometry relative="1" as="geometry" />
        </mxCell>
        <mxCell id="LIvWZLMN3E5GT9Do7VMa-161" style="edgeStyle=orthogonalEdgeStyle;rounded=0;orthogonalLoop=1;jettySize=auto;html=1;entryX=0;entryY=0.5;entryDx=0;entryDy=0;fontSize=10;fillColor=#ffe6cc;strokeColor=#d79b00;" edge="1" parent="1" source="LIvWZLMN3E5GT9Do7VMa-118" target="LIvWZLMN3E5GT9Do7VMa-153">
          <mxGeometry relative="1" as="geometry" />
        </mxCell>
        <mxCell id="LIvWZLMN3E5GT9Do7VMa-162" style="edgeStyle=orthogonalEdgeStyle;rounded=0;orthogonalLoop=1;jettySize=auto;html=1;entryX=0;entryY=0.5;entryDx=0;entryDy=0;fontSize=10;fillColor=#ffe6cc;strokeColor=#d79b00;" edge="1" parent="1" source="LIvWZLMN3E5GT9Do7VMa-118" target="LIvWZLMN3E5GT9Do7VMa-155">
          <mxGeometry relative="1" as="geometry" />
        </mxCell>
        <mxCell id="LIvWZLMN3E5GT9Do7VMa-163" style="edgeStyle=orthogonalEdgeStyle;rounded=0;orthogonalLoop=1;jettySize=auto;html=1;entryX=0;entryY=0.5;entryDx=0;entryDy=0;fontSize=10;fillColor=#ffe6cc;strokeColor=#d79b00;" edge="1" parent="1" source="LIvWZLMN3E5GT9Do7VMa-118" target="LIvWZLMN3E5GT9Do7VMa-156">
          <mxGeometry relative="1" as="geometry" />
        </mxCell>
        <mxCell id="LIvWZLMN3E5GT9Do7VMa-164" style="edgeStyle=orthogonalEdgeStyle;rounded=0;orthogonalLoop=1;jettySize=auto;html=1;exitX=1;exitY=0.5;exitDx=0;exitDy=0;entryX=0;entryY=0.5;entryDx=0;entryDy=0;fontSize=10;fillColor=#ffe6cc;strokeColor=#d79b00;" edge="1" parent="1" source="LIvWZLMN3E5GT9Do7VMa-118" target="LIvWZLMN3E5GT9Do7VMa-154">
          <mxGeometry relative="1" as="geometry" />
        </mxCell>
        <mxCell id="LIvWZLMN3E5GT9Do7VMa-118" value="Plan and Estimate" style="rounded=0;whiteSpace=wrap;html=1;fillColor=#ffe6cc;strokeColor=#d79b00;" vertex="1" parent="1">
          <mxGeometry x="280" y="980" width="80" height="40" as="geometry" />
        </mxCell>
        <mxCell id="LIvWZLMN3E5GT9Do7VMa-172" style="edgeStyle=orthogonalEdgeStyle;rounded=0;orthogonalLoop=1;jettySize=auto;html=1;exitX=1;exitY=0.5;exitDx=0;exitDy=0;entryX=0;entryY=0.5;entryDx=0;entryDy=0;fontSize=10;fillColor=#ffe6cc;strokeColor=#d79b00;" edge="1" parent="1" source="LIvWZLMN3E5GT9Do7VMa-119" target="LIvWZLMN3E5GT9Do7VMa-165">
          <mxGeometry relative="1" as="geometry" />
        </mxCell>
        <mxCell id="LIvWZLMN3E5GT9Do7VMa-173" style="edgeStyle=orthogonalEdgeStyle;rounded=0;orthogonalLoop=1;jettySize=auto;html=1;entryX=0;entryY=0.5;entryDx=0;entryDy=0;fontSize=10;fillColor=#ffe6cc;strokeColor=#d79b00;" edge="1" parent="1" source="LIvWZLMN3E5GT9Do7VMa-119" target="LIvWZLMN3E5GT9Do7VMa-166">
          <mxGeometry relative="1" as="geometry" />
        </mxCell>
        <mxCell id="LIvWZLMN3E5GT9Do7VMa-174" style="edgeStyle=orthogonalEdgeStyle;rounded=0;orthogonalLoop=1;jettySize=auto;html=1;entryX=0;entryY=0.5;entryDx=0;entryDy=0;fontSize=10;fillColor=#ffe6cc;strokeColor=#d79b00;" edge="1" parent="1" source="LIvWZLMN3E5GT9Do7VMa-119" target="LIvWZLMN3E5GT9Do7VMa-167">
          <mxGeometry relative="1" as="geometry" />
        </mxCell>
        <mxCell id="LIvWZLMN3E5GT9Do7VMa-119" value="Implement" style="rounded=0;whiteSpace=wrap;html=1;fillColor=#ffe6cc;strokeColor=#d79b00;" vertex="1" parent="1">
          <mxGeometry x="280" y="1280" width="80" height="40" as="geometry" />
        </mxCell>
        <mxCell id="LIvWZLMN3E5GT9Do7VMa-176" style="edgeStyle=orthogonalEdgeStyle;rounded=0;orthogonalLoop=1;jettySize=auto;html=1;entryX=0;entryY=0.5;entryDx=0;entryDy=0;fontSize=10;fillColor=#ffe6cc;strokeColor=#d79b00;" edge="1" parent="1" source="LIvWZLMN3E5GT9Do7VMa-120" target="LIvWZLMN3E5GT9Do7VMa-168">
          <mxGeometry relative="1" as="geometry" />
        </mxCell>
        <mxCell id="LIvWZLMN3E5GT9Do7VMa-177" style="edgeStyle=orthogonalEdgeStyle;rounded=0;orthogonalLoop=1;jettySize=auto;html=1;entryX=0;entryY=0.5;entryDx=0;entryDy=0;fontSize=10;fillColor=#ffe6cc;strokeColor=#d79b00;" edge="1" parent="1" source="LIvWZLMN3E5GT9Do7VMa-120" target="LIvWZLMN3E5GT9Do7VMa-169">
          <mxGeometry relative="1" as="geometry" />
        </mxCell>
        <mxCell id="LIvWZLMN3E5GT9Do7VMa-120" value="Review and Retrospect" style="rounded=0;whiteSpace=wrap;html=1;fillColor=#ffe6cc;strokeColor=#d79b00;" vertex="1" parent="1">
          <mxGeometry x="280" y="1430" width="80" height="40" as="geometry" />
        </mxCell>
        <mxCell id="LIvWZLMN3E5GT9Do7VMa-178" style="edgeStyle=orthogonalEdgeStyle;rounded=0;orthogonalLoop=1;jettySize=auto;html=1;entryX=0;entryY=0.5;entryDx=0;entryDy=0;fontSize=10;fillColor=#ffe6cc;strokeColor=#d79b00;" edge="1" parent="1" source="LIvWZLMN3E5GT9Do7VMa-121" target="LIvWZLMN3E5GT9Do7VMa-170">
          <mxGeometry relative="1" as="geometry" />
        </mxCell>
        <mxCell id="LIvWZLMN3E5GT9Do7VMa-179" style="edgeStyle=orthogonalEdgeStyle;rounded=0;orthogonalLoop=1;jettySize=auto;html=1;entryX=0;entryY=0.5;entryDx=0;entryDy=0;fontSize=10;fillColor=#ffe6cc;strokeColor=#d79b00;" edge="1" parent="1" source="LIvWZLMN3E5GT9Do7VMa-121" target="LIvWZLMN3E5GT9Do7VMa-171">
          <mxGeometry relative="1" as="geometry" />
        </mxCell>
        <mxCell id="LIvWZLMN3E5GT9Do7VMa-121" value="Release" style="rounded=0;whiteSpace=wrap;html=1;fillColor=#ffe6cc;strokeColor=#d79b00;" vertex="1" parent="1">
          <mxGeometry x="280" y="1530" width="80" height="40" as="geometry" />
        </mxCell>
        <mxCell id="LIvWZLMN3E5GT9Do7VMa-139" value="Create Project Vision" style="rounded=0;whiteSpace=wrap;html=1;fillColor=#ffe6cc;strokeColor=#d79b00;" vertex="1" parent="1">
          <mxGeometry x="400" y="680" width="120" height="40" as="geometry" />
        </mxCell>
        <mxCell id="LIvWZLMN3E5GT9Do7VMa-140" value="Identify Scrum Master and Business Stakeholder(s)" style="rounded=0;whiteSpace=wrap;html=1;fillColor=#ffe6cc;strokeColor=#d79b00;" vertex="1" parent="1">
          <mxGeometry x="400" y="730" width="120" height="40" as="geometry" />
        </mxCell>
        <mxCell id="LIvWZLMN3E5GT9Do7VMa-141" value="Form Scrum Team" style="rounded=0;whiteSpace=wrap;html=1;fillColor=#ffe6cc;strokeColor=#d79b00;" vertex="1" parent="1">
          <mxGeometry x="400" y="780" width="120" height="40" as="geometry" />
        </mxCell>
        <mxCell id="LIvWZLMN3E5GT9Do7VMa-142" value="Develop Epic(s)" style="rounded=0;whiteSpace=wrap;html=1;fillColor=#ffe6cc;strokeColor=#d79b00;" vertex="1" parent="1">
          <mxGeometry x="400" y="830" width="120" height="40" as="geometry" />
        </mxCell>
        <mxCell id="LIvWZLMN3E5GT9Do7VMa-143" value="Create Prioritized Product Backlog" style="rounded=0;whiteSpace=wrap;html=1;fillColor=#ffe6cc;strokeColor=#d79b00;" vertex="1" parent="1">
          <mxGeometry x="400" y="880" width="120" height="40" as="geometry" />
        </mxCell>
        <mxCell id="LIvWZLMN3E5GT9Do7VMa-144" value="Conduct Release Planning" style="rounded=0;whiteSpace=wrap;html=1;fillColor=#ffe6cc;strokeColor=#d79b00;" vertex="1" parent="1">
          <mxGeometry x="400" y="930" width="120" height="40" as="geometry" />
        </mxCell>
        <mxCell id="LIvWZLMN3E5GT9Do7VMa-150" value="Create User Storie" style="rounded=0;whiteSpace=wrap;html=1;fillColor=#ffe6cc;strokeColor=#d79b00;" vertex="1" parent="1">
          <mxGeometry x="400" y="980" width="120" height="40" as="geometry" />
        </mxCell>
        <mxCell id="LIvWZLMN3E5GT9Do7VMa-152" value="Estimate User Stories" style="rounded=0;whiteSpace=wrap;html=1;fillColor=#ffe6cc;strokeColor=#d79b00;" vertex="1" parent="1">
          <mxGeometry x="400" y="1030" width="120" height="40" as="geometry" />
        </mxCell>
        <mxCell id="LIvWZLMN3E5GT9Do7VMa-153" value="Commit User Stories" style="rounded=0;whiteSpace=wrap;html=1;fillColor=#ffe6cc;strokeColor=#d79b00;" vertex="1" parent="1">
          <mxGeometry x="400" y="1080" width="120" height="40" as="geometry" />
        </mxCell>
        <mxCell id="LIvWZLMN3E5GT9Do7VMa-154" value="Identify Tasks" style="rounded=0;whiteSpace=wrap;html=1;fillColor=#ffe6cc;strokeColor=#d79b00;" vertex="1" parent="1">
          <mxGeometry x="400" y="1130" width="120" height="40" as="geometry" />
        </mxCell>
        <mxCell id="LIvWZLMN3E5GT9Do7VMa-155" value="Estimate Tasks" style="rounded=0;whiteSpace=wrap;html=1;fillColor=#ffe6cc;strokeColor=#d79b00;" vertex="1" parent="1">
          <mxGeometry x="400" y="1180" width="120" height="40" as="geometry" />
        </mxCell>
        <mxCell id="LIvWZLMN3E5GT9Do7VMa-156" value="Update Sprint Backlog" style="rounded=0;whiteSpace=wrap;html=1;fillColor=#ffe6cc;strokeColor=#d79b00;" vertex="1" parent="1">
          <mxGeometry x="400" y="1230" width="120" height="40" as="geometry" />
        </mxCell>
        <mxCell id="LIvWZLMN3E5GT9Do7VMa-165" value="Create Deliverables" style="rounded=0;whiteSpace=wrap;html=1;fillColor=#ffe6cc;strokeColor=#d79b00;" vertex="1" parent="1">
          <mxGeometry x="400" y="1280" width="120" height="40" as="geometry" />
        </mxCell>
        <mxCell id="LIvWZLMN3E5GT9Do7VMa-166" value="Conduct Daily Standup" style="rounded=0;whiteSpace=wrap;html=1;fillColor=#ffe6cc;strokeColor=#d79b00;" vertex="1" parent="1">
          <mxGeometry x="400" y="1330" width="120" height="40" as="geometry" />
        </mxCell>
        <mxCell id="LIvWZLMN3E5GT9Do7VMa-167" value="Refine Prioritized Product Backlog" style="rounded=0;whiteSpace=wrap;html=1;fillColor=#ffe6cc;strokeColor=#d79b00;" vertex="1" parent="1">
          <mxGeometry x="400" y="1380" width="120" height="40" as="geometry" />
        </mxCell>
        <mxCell id="LIvWZLMN3E5GT9Do7VMa-168" value="Demonstrate and Validate Sprint" style="rounded=0;whiteSpace=wrap;html=1;fillColor=#ffe6cc;strokeColor=#d79b00;" vertex="1" parent="1">
          <mxGeometry x="400" y="1430" width="120" height="40" as="geometry" />
        </mxCell>
        <mxCell id="LIvWZLMN3E5GT9Do7VMa-169" value="Retrospect Sprint" style="rounded=0;whiteSpace=wrap;html=1;fillColor=#ffe6cc;strokeColor=#d79b00;" vertex="1" parent="1">
          <mxGeometry x="400" y="1480" width="120" height="40" as="geometry" />
        </mxCell>
        <mxCell id="LIvWZLMN3E5GT9Do7VMa-170" value="Ship Deliverables" style="rounded=0;whiteSpace=wrap;html=1;fillColor=#ffe6cc;strokeColor=#d79b00;" vertex="1" parent="1">
          <mxGeometry x="400" y="1530" width="120" height="40" as="geometry" />
        </mxCell>
        <mxCell id="LIvWZLMN3E5GT9Do7VMa-171" value="Retrospect Release" style="rounded=0;whiteSpace=wrap;html=1;fillColor=#ffe6cc;strokeColor=#d79b00;" vertex="1" parent="1">
          <mxGeometry x="400" y="1580" width="120" height="40" as="geometry" />
        </mxCell>
      </root>
    </mxGraphModel>
  </diagram>
</mxfile>
